<?xml version="1.0" encoding="UTF-8" standalone="no"?>
<svg
   xmlns="http://www.w3.org/2000/svg"
   xmlns:xlink="http://www.w3.org/1999/xlink"
   width="266"
   height="266"
   version="1.1"
   viewBox="0 0 7507.07 7507.111"
   id="svg2"
>
  <defs>
  </defs>
  <g
     id="garland"
     transform="translate(-749.77024,-743.13926)">
    <path
       class="odd"
       d="m 7258,3892 c -155,0 -282,126 -282,282 0,155 127,282 282,282 156,0 282,-127 282,-282 0,-156 -126,-282 -282,-282 z"
       id="path486"
       style="fill:url(#id208)"/>
    <path
       class="evenball"
       d="m 6851,3660 c -110,-110 -110,-289 0,-399 111,-110 289,-110 399,0 110,110 110,289 0,399 -110,110 -288,110 -399,0 z"
       id="path488"
       style="fill:url(#id201)"
       inkscape:label="#path35" />
    <path
       class="oddball"
       d="m 6691,2558 c -156,0 -282,126 -282,282 0,156 126,282 282,282 156,0 282,-126 282,-282 0,-156 -126,-282 -282,-282 z"
       id="path490"
       style="fill:url(#id229)"/>
    <path
       class="evenball"
       d="m 5970,2511 c -110,-110 -110,-289 0,-399 110,-110 289,-110 399,0 110,110 110,289 0,399 -110,110 -289,110 -399,0 z"
       id="path492"
       style="fill:url(#id180)"
       inkscape:label="#path47" />
    <path
       class="oddball"
       d="m 5561,1676 c -156,0 -283,127 -283,282 0,156 127,282 283,282 155,0 282,-126 282,-282 0,-155 -127,-282 -282,-282 z"
       id="path494"
       style="fill:url(#id131)"/>
    <path
       class="evenball"
       d="m 4684,1978 c -110,-110 -110,-289 0,-399 110,-110 289,-110 399,0 110,110 110,289 0,399 -110,110 -289,110 -399,0 z"
       id="path496"
       style="fill:url(#id227)"
       inkscape:label="#path59" />
    <path
       class="evenball"
       d="m 3252,2189 c -111,-110 -111,-288 0,-399 110,-110 288,-110 398,0 111,111 111,289 0,399 -110,110 -288,110 -398,0 z"
       id="path498"
       style="fill:url(#id151)"
       inkscape:label="#path71" />
    <path
       class="oddball"
       d="m 2790,2069 c -156,0 -282,126 -282,282 0,156 126,282 282,282 155,0 282,-126 282,-282 0,-156 -127,-282 -282,-282 z"
       id="path500"
       style="fill:url(#id226)"/>
    <path
       class="evenball"
       d="m 2106,3042 c -110,-110 -110,-289 0,-399 110,-110 289,-110 399,0 110,110 110,289 0,399 -110,110 -289,110 -399,0 z"
       id="path502"
       style="fill:url(#id240)"
       inkscape:label="#path83" />
    <path
       class="evenball"
       d="m 2341,2730 c -110,-110 -110,-288 0,-399 110,-110 289,-110 399,0 110,111 110,289 0,399 -110,111 -289,111 -399,0 z"
       id="path504"
       style="fill:url(#id184)"
       inkscape:label="#path81" />
    <path
       class="oddball"
       d="m 1745,4627 c -155,0 -282,126 -282,282 0,156 127,282 282,282 156,0 283,-126 283,-282 0,-156 -127,-282 -283,-282 z"
       id="path506"
       style="fill:url(#id234)"/>
    <path
       class="oddball"
       d="m 1746,6154 c -156,0 -282,126 -282,282 0,156 126,282 282,282 155,0 282,-126 282,-282 0,-156 -127,-282 -282,-282 z"
       id="path508"
       style="fill:url(#id141)"/>
    <path
       class="evenball"
       d="m 1546,7385 c -110,-110 -110,-288 0,-399 110,-110 289,-110 399,0 110,111 110,289 0,399 -110,111 -289,111 -399,0 z"
       id="path510"
       style="fill:url(#id174)"
       inkscape:label="#path119" />
    <path
       class="evenball"
       d="m 1546,5886 c -110,-110 -110,-289 0,-399 110,-110 289,-110 399,0 110,110 110,289 0,399 -110,110 -289,110 -399,0 z"
       id="path512"
       style="fill:url(#id173)"
       inkscape:label="#path107" />
    <path
       class="evenball"
       d="m 1518,7027 c -110,-111 -110,-289 0,-399 110,-110 289,-110 399,0 110,110 110,288 0,399 -110,110 -289,110 -399,0 z"
       id="path514"
       style="fill:url(#id187)"
       inkscape:label="#path117" />
    <path
       class="evenball"
       d="m 1518,5527 c -110,-110 -110,-289 0,-399 110,-110 289,-110 399,0 110,110 110,289 0,399 -110,110 -289,110 -399,0 z"
       id="path516"
       style="fill:url(#id188)"
       inkscape:label="#path105" />
    <path
       class="oddball"
       d="m 1032,7263 c -156,0 -282,126 -282,282 0,155 126,282 282,282 156,0 282,-127 282,-282 0,-156 -126,-282 -282,-282 z"
       id="path518"
       style="fill:url(#id202)"/>
    <path
       class="oddball"
       d="m 1060,7686 c -155,0 -282,126 -282,282 0,156 127,282 282,282 156,0 282,-126 282,-282 0,-156 -126,-282 -282,-282 z"
       id="path520"
       style="fill:url(#id245)"/>
    <path
       class="oddball"
       d="m 1032,5763 c -156,0 -282,126 -282,282 0,156 126,282 282,282 156,0 282,-126 282,-282 0,-156 -126,-282 -282,-282 z"
       id="path522"
       style="fill:url(#id149)"/>
    <path
       class="oddball"
       d="m 1032,4260 c -156,0 -282,127 -282,282 0,156 126,283 282,283 156,0 282,-127 282,-283 0,-155 -126,-282 -282,-282 z"
       id="path524"
       style="fill:url(#id190)"/>
    <path
       class="oddball"
       d="m 1746,7654 c -156,0 -282,126 -282,282 0,155 126,282 282,282 155,0 282,-127 282,-282 0,-156 -127,-282 -282,-282 z"
       id="path526"
       style="fill:url(#id140)"/>
    <path
       class="oddball"
       d="m 1717,7295 c -155,0 -282,126 -282,282 0,156 127,282 282,282 156,0 282,-126 282,-282 0,-156 -126,-282 -282,-282 z"
       id="path528"
       style="fill:url(#radialGradient10168)"/>
    <path
       class="oddball"
       d="m 1717,5795 c -155,0 -282,127 -282,282 0,156 127,282 282,282 156,0 282,-126 282,-282 0,-155 -126,-282 -282,-282 z"
       id="path530"
       style="fill:url(#id127)"/>
    <path
       class="evenball"
       d="m 833,6994 c -111,-110 -111,-288 0,-399 110,-110 288,-110 399,0 110,111 110,289 0,399 -111,111 -289,111 -399,0 z"
       id="path532"
       style="fill:url(#id130)"
       inkscape:label="#path121" />
    <path
       class="evenball"
       d="m 861,7418 c -110,-111 -110,-289 0,-399 110,-110 289,-110 399,0 110,110 110,288 0,399 -110,110 -289,110 -399,0 z"
       id="path534"
       style="fill:url(#id136)"
       inkscape:label="#path123" />
    <path
       class="oddball"
       d="m 1580,6936 c -155,0 -282,126 -282,282 0,156 127,282 282,282 156,0 282,-126 282,-282 0,-156 -126,-282 -282,-282 z"
       id="path536"
       style="fill:url(#id177)"/>
    <path
       class="evenball"
       d="m 1381,8167 c -110,-110 -110,-288 0,-399 110,-110 289,-110 399,0 110,111 110,289 0,399 -110,111 -289,111 -399,0 z"
       id="path538"
       style="fill:url(#id207)"
       inkscape:label="#path127" />
    <path
       class="evenball"
       d="m 833,5495 c -111,-110 -111,-289 0,-399 110,-110 288,-110 399,0 110,110 110,289 0,399 -111,110 -289,110 -399,0 z"
       id="path540"
       style="fill:url(#id206)"
       inkscape:label="#path109" />
    <path
       class="evenball"
       d="m 944,3828 c -110,-110 -110,-288 0,-399 110,-110 289,-110 399,0 110,111 110,289 0,399 -110,110 -289,110 -399,0 z"
       id="path542"
       style="fill:url(#id248)"
       inkscape:label="#path97" />
    <path
       class="evenball"
       d="m 861,5918 c -110,-110 -110,-289 0,-399 110,-110 289,-110 399,0 110,110 110,289 0,399 -110,110 -289,110 -399,0 z"
       id="path544"
       style="fill:url(#id125)"
       inkscape:label="#path111" />
    <path
       class="evenball"
       d="m 886,4341 c -110,-110 -110,-289 0,-399 110,-110 289,-110 399,0 110,110 110,289 0,399 -110,110 -289,110 -399,0 z"
       id="path546"
       style="fill:url(#id250)"
       inkscape:label="#path99" />
    <path
       class="oddball"
       d="m 1580,5437 c -155,0 -282,126 -282,282 0,155 127,282 282,282 156,0 282,-127 282,-282 0,-156 -126,-282 -282,-282 z"
       id="path548"
       style="fill:url(#id176)"/>
    <path
       class="oddball"
       d="m 1060,6186 c -155,0 -282,127 -282,282 0,156 127,282 282,282 156,0 282,-126 282,-282 0,-155 -126,-282 -282,-282 z"
       id="path550"
       style="fill:url(#id231)"/>
    <path
       class="oddball"
       d="m 1935,3219 c -156,0 -282,126 -282,282 0,155 126,282 282,282 156,0 282,-127 282,-282 0,-156 -126,-282 -282,-282 z"
       id="path552"
       style="fill:url(#id204)"/>
    <path
       class="oddball"
       d="m 2092,2832 c -156,0 -282,126 -282,282 0,156 126,282 282,282 156,0 282,-126 282,-282 0,-156 -126,-282 -282,-282 z"
       id="path554"
       style="fill:url(#id221)"/>
    <path
       class="evenball"
       d="m 1381,6668 c -110,-110 -110,-289 0,-399 110,-110 289,-110 399,0 110,110 110,289 0,399 -110,110 -289,110 -399,0 z"
       id="path556"
       style="fill:url(#id214)"
       inkscape:label="#path115" />
    <path
       class="oddball"
       d="m 1060,4687 c -155,0 -282,126 -282,282 0,156 127,282 282,282 156,0 282,-126 282,-282 0,-156 -126,-282 -282,-282 z"
       id="path558"
       style="fill:url(#id230)"/>
    <path
       class="evenball"
       d="m 1567,4364 c -110,-110 -110,-289 0,-399 110,-110 289,-110 399,0 110,110 110,289 0,399 -110,110 -289,110 -399,0 z"
       id="path560"
       style="fill:url(#id189)"
       inkscape:label="#path95" />
    <path
       class="evenball"
       d="m 1577,3981 c -110,-110 -110,-288 0,-399 110,-110 289,-110 399,0 110,111 110,289 0,399 -110,110 -289,110 -399,0 z"
       id="path562"
       style="fill:url(#id144)"
       inkscape:label="#path93" />
    <path
       class="oddball"
       d="m 1711,4275 c -156,0 -282,126 -282,282 0,156 126,282 282,282 156,0 282,-126 282,-282 0,-156 -126,-282 -282,-282 z"
       id="path564"
       style="fill:url(#id242)"/>
    <path
       class="evenball"
       d="m 1381,5168 c -110,-110 -110,-288 0,-398 110,-111 289,-111 399,0 110,110 110,288 0,398 -110,111 -289,111 -399,0 z"
       id="path566"
       style="fill:url(#id215)"
       inkscape:label="#path103" />
    <path
       class="oddball"
       d="m 1485,2512 c -156,0 -282,127 -282,282 0,156 126,283 282,283 156,0 282,-127 282,-283 0,-155 -126,-282 -282,-282 z"
       id="path568"
       style="fill:url(#id157)"/>
    <path
       class="oddball"
       d="m 1301,6577 c -156,0 -282,127 -282,282 0,156 126,283 282,283 156,0 282,-127 282,-283 0,-155 -126,-282 -282,-282 z"
       id="path570"
       style="fill:url(#id171)"/>
    <path
       class="oddball"
       d="m 1301,5078 c -156,0 -282,126 -282,282 0,156 126,282 282,282 156,0 282,-126 282,-282 0,-156 -126,-282 -282,-282 z"
       id="path572"
       style="fill:url(#id172)"/>
    <path
       class="oddball"
       d="m 1297,2968 c -155,0 -282,126 -282,282 0,155 127,282 282,282 156,0 282,-127 282,-282 0,-156 -126,-282 -282,-282 z"
       id="path574"
       style="fill:url(#id211)"/>
    <path
       class="evenball"
       d="m 1514,3596 c -110,-111 -110,-289 0,-399 110,-110 288,-110 399,0 110,110 110,288 0,399 -111,110 -289,110 -399,0 z"
       id="path576"
       style="fill:url(#id185)"
       inkscape:label="#path91" />
    <path
       class="oddball"
       d="m 1547,3916 c -155,0 -282,127 -282,282 0,156 127,282 282,282 156,0 282,-126 282,-282 0,-155 -126,-282 -282,-282 z"
       id="path578"
       style="fill:url(#id199)"/>
    <path
       class="oddball"
       d="m 1389,3479 c -156,0 -282,127 -282,283 0,155 126,282 282,282 155,0 282,-127 282,-282 0,-156 -127,-283 -282,-283 z"
       id="path580"
       style="fill:url(#id194)"/>
    <path
       class="oddball"
       d="m 7972,4260 c -156,0 -282,127 -282,282 0,156 126,283 282,283 156,0 282,-127 282,-283 0,-155 -126,-282 -282,-282 z"
       id="path582"
       style="fill:url(#id241)"/>
    <path
       class="evenball"
       d="m 1101,6309 c -110,-110 -110,-289 0,-399 110,-110 289,-110 399,0 110,110 110,289 0,399 -110,110 -289,110 -399,0 z"
       id="path584"
       style="fill:url(#id160)"
       inkscape:label="#path113" />
    <path
       class="evenball"
       d="m 1101,4810 c -110,-110 -110,-289 0,-399 110,-110 289,-110 399,0 110,110 110,289 0,399 -110,110 -289,110 -399,0 z"
       id="path586"
       style="fill:url(#id161)"
       inkscape:label="#path101" />
    <path
       class="evenball"
       d="m 1101,7809 c -110,-111 -110,-289 0,-399 110,-110 289,-110 399,0 110,110 110,288 0,399 -110,110 -289,110 -399,0 z"
       id="path588"
       style="fill:url(#id167)"
       inkscape:label="#path125" />
    <path
       class="oddball"
       d="m 4144,1487 c -156,0 -282,126 -282,282 0,156 126,282 282,282 156,0 282,-126 282,-282 0,-156 -126,-282 -282,-282 z"
       id="path590"
       style="fill:url(#id133)"/>
    <path
       class="evenball"
       d="m 6991,3981 c -110,-110 -110,-288 0,-399 110,-110 289,-110 399,0 110,111 110,289 0,399 -110,110 -289,110 -399,0 z"
       id="path592"
       style="fill:url(#id219)"
       inkscape:label="#path33" />
    <path
       class="evenball"
       d="m 3570,2015 c -110,-110 -110,-289 0,-399 110,-110 289,-110 399,0 110,110 110,289 0,399 -110,110 -289,110 -399,0 z"
       id="path594"
       style="fill:url(#id232)"
       inkscape:label="#path69" />
    <path
       class="evenball"
       d="m 1840,2263 c -110,-110 -110,-289 0,-399 110,-110 289,-110 399,0 110,110 110,289 0,399 -110,110 -289,110 -399,0 z"
       id="path596"
       style="fill:url(#id198)"
       inkscape:label="#path85" />
    <path
       class="evenball"
       d="m 1542,2667 c -111,-110 -111,-289 0,-399 110,-110 288,-110 398,0 111,110 111,289 0,399 -110,110 -288,110 -398,0 z"
       id="path598"
       style="fill:url(#id182)"
       inkscape:label="#path87" />
    <path
       class="oddball"
       d="m 2130,2440 c -156,0 -282,126 -282,282 0,155 126,282 282,282 156,0 282,-127 282,-282 0,-156 -126,-282 -282,-282 z"
       id="path600"
       style="fill:url(#id213)"/>
    <path
       class="evenball"
       d="m 1497,3165 c -110,-110 -110,-288 0,-398 110,-111 289,-111 399,0 110,110 110,288 0,398 -110,111 -289,111 -399,0 z"
       id="path602"
       style="fill:url(#id220)"
       inkscape:label="#path89" />
    <path
       class="oddball"
       d="m 2753,1227 c -156,0 -282,126 -282,282 0,156 126,282 282,282 156,0 282,-126 282,-282 0,-156 -126,-282 -282,-282 z"
       id="path604"
       style="fill:url(#id251)"/>
    <path
       class="oddball"
       d="m 2382,1514 c -156,0 -282,127 -282,282 0,156 126,282 282,282 156,0 282,-126 282,-282 0,-155 -126,-282 -282,-282 z"
       id="path606"
       style="fill:url(#id209)"/>
    <path
       class="oddball"
       d="m 3114,1810 c -156,0 -282,126 -282,282 0,156 126,282 282,282 156,0 282,-126 282,-282 0,-156 -126,-282 -282,-282 z"
       id="path608"
       style="fill:url(#id164)"/>
    <path
       class="evenball"
       d="m 2467,2383 c -110,-110 -110,-288 0,-398 110,-111 289,-111 399,0 110,110 110,288 0,398 -110,111 -289,111 -399,0 z"
       id="path610"
       style="fill:url(#id163)"
       inkscape:label="#path79" />
    <path
       class="oddball"
       d="m 2204,1998 c -156,0 -282,127 -282,282 0,156 126,282 282,282 155,0 282,-126 282,-282 0,-155 -127,-282 -282,-282 z"
       id="path612"
       style="fill:url(#id235)"/>
    <path
       class="evenball"
       d="m 3397,1353 c -110,-110 -110,-289 0,-399 110,-110 289,-110 399,0 110,110 110,289 0,399 -110,110 -289,110 -399,0 z"
       id="path614"
       style="fill:url(#id139)"
       inkscape:label="#path73" />
    <path
       class="evenball"
       d="m 2941,1542 c -110,-110 -110,-289 0,-399 110,-110 289,-110 399,0 110,110 110,289 0,399 -110,110 -289,110 -399,0 z"
       id="path616"
       style="fill:url(#id223)"
       inkscape:label="#path75" />
    <path
       class="oddball"
       d="m 3367,1486 c -155,0 -282,126 -282,282 0,155 127,282 282,282 156,0 283,-127 283,-282 0,-156 -127,-282 -283,-282 z"
       id="path618"
       style="fill:url(#id142)"/>
    <path
       class="evenball"
       d="m 2673,1950 c -110,-110 -110,-289 0,-399 110,-110 288,-110 399,0 110,110 110,289 0,399 -111,110 -289,110 -399,0 z"
       id="path620"
       style="fill:url(#id183)"
       inkscape:label="#path77" />
    <path
       class="oddball"
       d="m 4502,750 c -156,0 -282,126 -282,282 0,156 126,282 282,282 156,0 282,-126 282,-282 0,-156 -126,-282 -282,-282 z"
       id="path622"
       style="fill:url(#id155)"/>
    <path
       class="oddball"
       d="m 4049,808 c -156,0 -282,126 -282,282 0,156 126,282 282,282 156,0 282,-126 282,-282 0,-156 -126,-282 -282,-282 z"
       id="path624"
       style="fill:url(#id193)"/>
    <path
       class="oddball"
       d="m 6912,2832 c -156,0 -282,126 -282,282 0,156 126,282 282,282 156,0 282,-126 282,-282 0,-156 -126,-282 -282,-282 z"
       id="path626"
       style="fill:url(#id200)"/>
    <path
       class="oddball"
       d="m 5890,1810 c -156,0 -282,126 -282,282 0,156 126,282 282,282 156,0 282,-126 282,-282 0,-156 -126,-282 -282,-282 z"
       id="path628"
       style="fill:url(#id134)"/>
    <path
       class="oddball"
       d="m 7543,2567 c -156,0 -282,127 -282,282 0,156 126,282 282,282 156,0 282,-126 282,-282 0,-155 -126,-282 -282,-282 z"
       id="path630"
       style="fill:url(#id165)"/>
    <path
       class="oddball"
       d="m 6287,1257 c -156,0 -282,127 -282,282 0,156 126,282 282,282 156,0 282,-126 282,-282 0,-155 -126,-282 -282,-282 z"
       id="path632"
       style="fill:url(#id195)"/>
    <path
       class="oddball"
       d="m 4502,1435 c -156,0 -282,127 -282,282 0,156 126,282 282,282 156,0 282,-126 282,-282 0,-155 -126,-282 -282,-282 z"
       id="path634"
       style="fill:url(#id154)"/>
    <path
       class="evenball"
       d="m 3912,1761 c -110,-110 -110,-289 0,-399 110,-110 289,-110 399,0 110,110 110,289 0,399 -110,110 -289,110 -399,0 z"
       id="path636"
       style="fill:url(#id138)"
       inkscape:label="#path67" />
    <path
       class="oddball"
       d="m 3657,1134 c -156,0 -282,126 -282,282 0,155 126,282 282,282 155,0 282,-127 282,-282 0,-156 -127,-282 -282,-282 z"
       id="path638"
       style="fill:url(#id252)"/>
    <path
       class="evenball"
       d="m 5208,1353 c -110,-110 -110,-289 0,-399 110,-110 288,-110 399,0 110,110 110,289 0,399 -111,110 -289,110 -399,0 z"
       id="path640"
       style="fill:url(#id170)"
       inkscape:label="#path61" />
    <path
       class="evenball"
       d="m 4777,1292 c -110,-110 -110,-288 0,-398 110,-111 289,-111 399,0 110,110 110,288 0,398 -110,111 -289,111 -399,0 z"
       id="path642"
       style="fill:url(#id162)"
       inkscape:label="#path63" />
    <path
       class="evenball"
       d="m 6264,2730 c -110,-110 -110,-288 0,-399 110,-110 289,-110 399,0 110,111 110,289 0,399 -110,111 -289,111 -399,0 z"
       id="path644"
       style="fill:url(#id148)"
       inkscape:label="#path45" />
    <path
       class="evenball"
       d="m 5022,2012 c -110,-110 -110,-288 0,-398 111,-111 289,-111 399,0 110,110 110,288 0,398 -110,111 -288,111 -399,0 z"
       id="path646"
       style="fill:url(#id203)"
       inkscape:label="#path57" />
    <path
       class="oddball"
       d="m 4933,1256 c -156,0 -282,127 -282,282 0,156 126,282 282,282 156,0 282,-126 282,-282 0,-155 -126,-282 -282,-282 z"
       id="path648"
       style="fill:url(#id152)"/>
    <path
       class="evenball"
       d="m 7673,3871 c -110,-110 -110,-289 0,-399 110,-110 289,-110 399,0 110,110 110,289 0,399 -110,110 -289,110 -399,0 z"
       id="path650"
       style="fill:url(#id153)"
       inkscape:label="#path37" />
    <path
       class="evenball"
       d="m 6820,2330 c -110,-110 -110,-289 0,-399 110,-110 289,-110 399,0 110,110 110,289 0,399 -110,110 -289,110 -399,0 z"
       id="path652"
       style="fill:url(#id243)"
       inkscape:label="#path49" />
    <path
       class="evenball"
       d="m 4302,1500 c -110,-110 -110,-289 0,-399 111,-110 289,-110 399,0 111,110 111,289 0,399 -110,110 -288,110 -399,0 z"
       id="path654"
       style="fill:url(#id224)"
       inkscape:label="#path65" />
    <path
       class="evenball"
       d="m 6449,2016 c -110,-110 -110,-289 0,-399 110,-110 289,-110 399,0 110,110 110,289 0,399 -110,110 -289,110 -399,0 z"
       id="path656"
       style="fill:url(#id238)"
       inkscape:label="#path51" />
    <path
       class="evenball"
       d="m 7487,3477 c -110,-110 -110,-288 0,-398 110,-111 289,-111 399,0 110,110 110,288 0,398 -110,111 -289,111 -399,0 z"
       id="path658"
       style="fill:url(#id179)"
       inkscape:label="#path39" />
    <path
       class="oddball"
       d="m 5849,1054 c -156,0 -282,126 -282,282 0,155 126,282 282,282 156,0 282,-127 282,-282 0,-156 -126,-282 -282,-282 z"
       id="path660"
       style="fill:url(#id217)"/>
    <path
       class="oddball"
       d="m 7241,2197 c -156,0 -282,126 -282,282 0,155 126,282 282,282 156,0 282,-127 282,-282 0,-156 -126,-282 -282,-282 z"
       id="path662"
       style="fill:url(#id168)"/>
    <path
       class="oddball"
       d="m 7279,3131 c -156,0 -282,126 -282,282 0,156 126,282 282,282 156,0 282,-126 282,-282 0,-156 -126,-282 -282,-282 z"
       id="path664"
       style="fill:url(#id145)"/>
    <path
       class="oddball"
       d="m 7919,3857 c -156,0 -282,126 -282,282 0,155 126,282 282,282 156,0 282,-127 282,-282 0,-156 -126,-282 -282,-282 z"
       id="path666"
       style="fill:url(#id129)"/>
    <path
       class="oddball"
       d="m 6345,1881 c -156,0 -282,127 -282,282 0,156 126,282 282,283 156,-1 282,-127 282,-283 0,-155 -126,-282 -282,-282 z"
       id="path668"
       style="fill:url(#id228)"/>
    <path
       class="evenball"
       d="m 6739,2932 c -110,-110 -110,-289 0,-399 110,-110 289,-110 399,0 110,110 110,289 0,399 -110,110 -289,110 -399,0 z"
       id="path670"
       style="fill:url(#id212)"
       inkscape:label="#path43" />
    <path
       class="evenball"
       d="m 5477,1957 c -111,-110 -111,-288 0,-399 110,-110 288,-110 398,0 111,111 111,289 0,399 -110,110 -288,110 -398,0 z"
       id="path672"
       style="fill:url(#radialGradient10170)"
       inkscape:label="#path55" />
    <path
       class="oddball"
       d="m 5347,1134 c -156,0 -282,126 -282,282 0,155 126,282 282,282 156,0 282,-127 282,-282 0,-156 -126,-282 -282,-282 z"
       id="path674"
       style="fill:url(#id191)"/>
    <path
       class="oddball"
       d="m 6800,1998 c -156,0 -282,127 -282,282 0,156 126,282 282,282 156,0 282,-126 282,-282 0,-155 -126,-282 -282,-282 z"
       id="path676"
       style="fill:url(#id169)"/>
    <path
       class="evenball"
       d="m 5932,1950 c -110,-110 -110,-289 0,-399 110,-110 289,-110 399,0 110,110 110,289 0,399 -110,110 -289,110 -399,0 z"
       id="path678"
       style="fill:url(#id247)"
       inkscape:label="#path53" />
    <path
       class="evenball"
       d="m 7108,3165 c -110,-110 -110,-288 0,-398 110,-111 289,-111 399,0 110,110 110,288 0,398 -110,111 -289,111 -399,0 z"
       id="path680"
       style="fill:url(#id210)"
       inkscape:label="#path41" />
    <path
       class="oddball"
       d="m 7258,6918 c -155,0 -282,127 -282,282 0,156 127,283 282,283 156,0 282,-127 282,-283 0,-155 -126,-282 -282,-282 z"
       id="path682"
       style="fill:url(#id205)"/>
    <path
       class="oddball"
       d="m 7258,5391 c -155,0 -282,126 -282,282 0,156 127,282 282,282 156,0 282,-126 282,-282 0,-156 -126,-282 -282,-282 z"
       id="path684"
       style="fill:url(#id233)"/>
    <path
       class="evenball"
       d="m 7059,5123 c -110,-110 -110,-289 0,-399 110,-110 289,-110 399,0 110,110 110,289 0,399 -110,110 -289,110 -399,0 z"
       id="path686"
       style="fill:url(#id192)"
       inkscape:label="#path23" />
    <path
       class="evenball"
       d="m 7059,6622 c -110,-110 -110,-288 0,-399 110,-110 289,-110 399,0 110,111 110,289 0,399 -110,111 -289,111 -399,0 z"
       id="path688"
       style="fill:url(#id218)"
       inkscape:label="#path11" />
    <path
       class="evenball"
       d="m 7087,5482 c -110,-111 -110,-289 0,-399 110,-110 289,-110 399,0 110,110 110,288 0,399 -110,110 -289,110 -399,0 z"
       id="path690"
       style="fill:url(#id175)"
       inkscape:label="#path21" />
    <path
       class="evenball"
       d="m 7087,6981 c -110,-110 -110,-289 0,-399 110,-110 289,-110 399,0 110,110 110,289 0,399 -110,110 -289,110 -399,0 z"
       id="path692"
       style="fill:url(#id196)"
       inkscape:label="#path9" />
    <path
       class="oddball"
       d="m 7972,5782 c -156,0 -282,126 -282,282 0,156 126,282 282,282 156,0 282,-126 282,-282 0,-156 -126,-282 -282,-282 z"
       id="path694"
       style="fill:url(#id222)"/>
    <path
       class="oddball"
       d="m 7972,7285 c -156,0 -282,126 -282,282 0,156 126,282 282,282 156,0 282,-126 282,-282 0,-156 -126,-282 -282,-282 z"
       id="path696"
       style="fill:url(#id143)"/>
    <path
       class="oddball"
       d="m 7286,4250 c -155,0 -282,127 -282,282 0,156 127,282 282,282 156,0 283,-126 283,-282 0,-155 -127,-282 -283,-282 z"
       id="path698"
       style="fill:url(#id159)"/>
    <path
       class="oddball"
       d="m 7286,5750 c -155,0 -282,126 -282,282 0,156 127,282 282,282 156,0 283,-126 283,-282 0,-156 -127,-282 -283,-282 z"
       id="path700"
       style="fill:url(#id181)"/>
    <path
       class="evenball"
       d="m 7772,5514 c -110,-110 -110,-289 0,-399 110,-110 289,-110 399,0 110,110 110,289 0,399 -110,110 -289,110 -399,0 z"
       id="path702"
       style="fill:url(#id236)"
       inkscape:label="#path25" />
    <path
       class="evenball"
       d="m 7744,5091 c -110,-111 -110,-289 0,-399 110,-110 289,-110 399,0 110,110 110,288 0,399 -110,110 -289,110 -399,0 z"
       id="path704"
       style="fill:url(#id249)"
       inkscape:label="#path27" />
    <path
       class="oddball"
       d="m 7491,4609 c -156,0 -282,126 -282,282 0,156 126,282 282,282 155,0 282,-126 282,-282 0,-156 -127,-282 -282,-282 z"
       id="path706"
       style="fill:url(#id147)"/>
    <path
       class="evenball"
       d="m 7772,7013 c -110,-110 -110,-288 0,-399 110,-110 289,-110 399,0 110,111 110,289 0,399 -110,110 -289,110 -399,0 z"
       id="path708"
       style="fill:url(#id246)"
       inkscape:label="#path13" />
    <path
       class="evenball"
       d="m 7744,6590 c -110,-110 -110,-289 0,-399 110,-110 289,-110 399,0 110,110 110,289 0,399 -110,110 -289,110 -399,0 z"
       id="path710"
       style="fill:url(#id135)"
       inkscape:label="#path15" />
    <path
       class="evenball"
       d="m 7719,8167 c -110,-110 -110,-288 0,-399 110,-110 289,-110 399,0 110,111 110,289 0,399 -110,111 -289,111 -399,0 z"
       id="path712"
       style="fill:url(#id186)"
       inkscape:label="#path3" />
    <path
       class="oddball"
       d="m 7424,6109 c -156,0 -282,126 -282,282 0,155 126,282 282,282 155,0 282,-127 282,-282 0,-156 -127,-282 -282,-282 z"
       id="path714"
       style="fill:url(#id166)"/>
    <path
       class="oddball"
       d="m 7944,5359 c -156,0 -282,126 -282,282 0,156 126,282 282,282 155,0 282,-126 282,-282 0,-156 -127,-282 -282,-282 z"
       id="path716"
       style="fill:url(#id225)"/>
    <path
       class="evenball"
       d="m 7224,5840 c -110,-110 -110,-288 0,-399 110,-110 289,-110 399,0 110,111 110,289 0,399 -110,110 -289,110 -399,0 z"
       id="path718"
       style="fill:url(#id156)"
       inkscape:label="#path19" />
    <path
       class="oddball"
       d="m 7944,6858 c -156,0 -282,127 -282,282 0,156 126,282 282,282 155,0 282,-126 282,-282 0,-155 -127,-282 -282,-282 z"
       id="path720"
       style="fill:url(#id244)"/>
    <path
       class="evenball"
       d="m 7038,8167 c -110,-110 -110,-288 0,-399 110,-110 289,-110 399,0 110,111 110,289 0,399 -110,111 -289,111 -399,0 z"
       id="path722"
       style="fill:url(#id158)"
       inkscape:label="#path1" />
    <path
       class="oddball"
       d="m 7293,7271 c -156,0 -282,126 -282,282 0,155 126,282 282,282 155,0 282,-127 282,-282 0,-156 -127,-282 -282,-282 z"
       id="path724"
       style="fill:url(#id137)"/>
    <path
       class="evenball"
       d="m 7224,7340 c -110,-110 -110,-289 0,-399 110,-110 289,-110 399,0 110,110 110,289 0,399 -110,110 -289,110 -399,0 z"
       id="path726"
       style="fill:url(#id178)"
       inkscape:label="#path7" />
    <path
       class="oddball"
       d="m 7703,4968 c -156,0 -282,126 -282,282 0,156 126,282 282,282 156,0 282,-126 282,-282 0,-156 -126,-282 -282,-282 z"
       id="path728"
       style="fill:url(#id128)"/>
    <path
       class="oddball"
       d="m 7703,6467 c -156,0 -282,127 -282,282 0,156 126,282 282,282 156,0 282,-126 282,-282 0,-155 -126,-282 -282,-282 z"
       id="path730"
       style="fill:url(#id146)"/>
    <path
       class="oddball"
       d="m 7443,7634 c -156,0 -282,126 -282,282 0,156 126,282 282,282 155,0 282,-126 282,-282 0,-156 -127,-282 -282,-282 z"
       id="path732"
       style="fill:url(#id132)"/>
    <path
       class="evenball"
       d="m 7504,6199 c -111,-110 -111,-289 0,-399 110,-110 288,-110 399,0 110,110 110,289 0,399 -111,110 -289,110 -399,0 z"
       id="path734"
       style="fill:url(#id216)"/>
    <path
       class="evenball"
       d="m 7504,7699 c -111,-111 -111,-289 0,-399 110,-110 288,-110 399,0 110,110 110,288 0,399 -111,110 -289,110 -399,0 z"
       id="path736"
       style="fill:url(#id239)"
       inkscape:label="#path5" />
    <path
       class="evenball"
       d="m 7211,4331 c -110,-110 -110,-289 0,-399 110,-110 289,-110 399,0 110,110 110,289 0,399 -110,110 -289,110 -399,0 z"
       id="path738"
       style="fill:url(#id237)"
       inkscape:label="#path31" />
    <path
       class="evenball"
       d="m 7504,4700 c -111,-111 -111,-289 0,-399 110,-110 288,-110 399,0 110,110 110,288 0,399 -111,110 -289,110 -399,0 z"
       id="path740"
       style="fill:url(#id197)"
       inkscape:label="#path29" />
    <path
       class="oddball"
       d="m 7615,3479 c -156,0 -282,127 -282,283 0,155 126,282 282,282 156,0 282,-127 282,-282 0,-156 -126,-283 -282,-283 z"
       id="path742"
       style="fill:url(#id150)"/>
  </g>
</svg>