<?xml version="1.0" encoding="UTF-8" standalone="no"?>
<svg
   xmlns:dc="http://purl.org/dc/elements/1.1/"
   xmlns:cc="http://creativecommons.org/ns#"
   xmlns:rdf="http://www.w3.org/1999/02/22-rdf-syntax-ns#"
   xmlns:svg="http://www.w3.org/2000/svg"
   xmlns="http://www.w3.org/2000/svg"
   xmlns:sodipodi="http://sodipodi.sourceforge.net/DTD/sodipodi-0.dtd"
   xmlns:inkscape="http://www.inkscape.org/namespaces/inkscape"
   height="24"
   viewBox="0 0 226.50505 24"
   width="226.50505"
   id="svg5068"
   version="1.1"
   inkscape:version="0.91 r13725"
   sodipodi:docname="icons.svg"
   style="fill:#000000">
  <metadata
     id="metadata5078">
    <rdf:RDF>
      <cc:Work
         rdf:about="">
        <dc:format>image/svg+xml</dc:format>
        <dc:type
           rdf:resource="http://purl.org/dc/dcmitype/StillImage" />
        <dc:title></dc:title>
      </cc:Work>
    </rdf:RDF>
  </metadata>
  <defs
     id="defs5076" />
  <sodipodi:namedview
     pagecolor="#ffffff"
     bordercolor="#666666"
     borderopacity="1"
     objecttolerance="10"
     gridtolerance="10"
     guidetolerance="10"
     inkscape:pageopacity="0"
     inkscape:pageshadow="2"
     inkscape:window-width="1600"
     inkscape:window-height="838"
     id="namedview5074"
     showgrid="false"
     fit-margin-top="0"
     fit-margin-left="0"
     fit-margin-right="0"
     fit-margin-bottom="0"
     showborder="false"
     inkscape:zoom="5.6541799"
     inkscape:cx="70.054007"
     inkscape:cy="-9.6962538"
     inkscape:window-x="-8"
     inkscape:window-y="-8"
     inkscape:window-maximized="1"
     inkscape:current-layer="svg5068" />
  <path
     d="m 81.808192,12.305569 -2,0 0,4.000001 -3.999996,0 0,2 3.999996,0 0,4 2,0 0,-4 4,0 0,-2 -4,0 0,-4.000001 z m -1,-4.999999 c -5.519996,0 -9.999996,4.479999 -9.999996,10 0,5.52 4.48,10 9.999996,10 5.52,0 10,-4.48 10,-10 0,-5.520001 -4.48,-10 -10,-10 z m 0,18 c -4.41,0 -7.999996,-3.59 -7.999996,-8 0,-4.410001 3.589996,-8.000001 7.999996,-8.000001 4.41,0 8,3.59 8,8.000001 0,4.41 -3.59,8 -8,8 z"
     id="icon_plus"
     inkscape:connector-curvature="0" />
  <g
     style="fill:#000000"
     id="icon_insertafter"
     transform="translate(68.808194,32.30557)">
    <path
       id="path5622"
       d="M 0,0 24,0 24,24 0,24 Z"
       inkscape:connector-curvature="0"
       style="fill:none" />
    <path
       id="path5624"
       d="m 3,13 2,0 0,-2 -2,0 0,2 z m 0,4 2,0 0,-2 -2,0 0,2 z m 2,4 0,-2 -2,0 c 0,1.1 0.89,2 2,2 z M 3,9 5,9 5,7 3,7 3,9 Z m 12,12 2,0 0,-2 -2,0 0,2 z M 19,3 9,3 C 7.89,3 7,3.9 7,5 l 0,10 c 0,1.1 0.89,2 2,2 l 10,0 c 1.1,0 2,-0.9 2,-2 L 21,5 C 21,3.9 20.1,3 19,3 Z M 19,15 9,15 9,5 19,5 19,15 Z m -8,6 2,0 0,-2 -2,0 0,2 z m -4,0 2,0 0,-2 -2,0 0,2 z"
       inkscape:connector-curvature="0" />
  </g>
  <g
     style="fill:#000000"
     id="icon_group"
     transform="translate(14.808194,-21.69443)">
    <path
       id="path5638"
       d="M 0,0 24,0 24,24 0,24 Z"
       inkscape:connector-curvature="0"
       style="fill:none" />
    <path
       id="path5640"
       d="M 12,2 C 6.48,2 2,6.48 2,12 2,17.52 6.48,22 12,22 17.52,22 22,17.52 22,12 22,6.48 17.52,2 12,2 Z M 8,17.5 c -1.38,0 -2.5,-1.12 -2.5,-2.5 0,-1.38 1.12,-2.5 2.5,-2.5 1.38,0 2.5,1.12 2.5,2.5 0,1.38 -1.12,2.5 -2.5,2.5 z M 9.5,8 c 0,-1.38 1.12,-2.5 2.5,-2.5 1.38,0 2.5,1.12 2.5,2.5 0,1.38 -1.12,2.5 -2.5,2.5 C 10.62,10.5 9.5,9.38 9.5,8 Z m 6.5,9.5 c -1.38,0 -2.5,-1.12 -2.5,-2.5 0,-1.38 1.12,-2.5 2.5,-2.5 1.38,0 2.5,1.12 2.5,2.5 0,1.38 -1.12,2.5 -2.5,2.5 z"
       inkscape:connector-curvature="0" />
  </g>
  <g
     style="fill:#000000"
     id="icon_move"
     transform="translate(41.808194,5.30557)">
    <path
       id="path5654"
       d="m 10,9 4,0 0,-3 3,0 -5,-5 -5,5 3,0 0,3 z m -1,1 -3,0 0,-3 -5,5 5,5 0,-3 3,0 0,-4 z m 14,2 -5,-5 0,3 -3,0 0,4 3,0 0,3 5,-5 z m -9,3 -4,0 0,3 -3,0 5,5 5,-5 -3,0 0,-3 z"
       inkscape:connector-curvature="0" />
    <path
       id="path5656"
       d="M 0,0 24,0 24,24 0,24 Z"
       inkscape:connector-curvature="0"
       style="fill:none" />
  </g>
  <g
     style="fill:#000000"
     id="icon_plus1"
     transform="translate(68.808194,-21.69443)">
    <path
       id="path5670"
       d="M 0,0 24,0 24,24 0,24 Z"
       inkscape:connector-curvature="0"
       style="fill:none" />
    <path
       id="path5672"
       d="m 10,8 -2,0 0,4 -4,0 0,2 4,0 0,4 2,0 0,-4 4,0 0,-2 -4,0 z m 4.5,-1.92 0,1.82 2.5,-0.5 0,10.6 2,0 0,-13 z"
       inkscape:connector-curvature="0" />
  </g>
  <g
     style="fill:#000000"
     id="icon_palette"
     transform="translate(41.808194,-21.69443)">
    <path
       id="path5686"
       d="m 12,3 c -4.97,0 -9,4.03 -9,9 0,4.97 4.03,9 9,9 0.83,0 1.5,-0.67 1.5,-1.5 0,-0.39 -0.15,-0.74 -0.39,-1.01 -0.23,-0.26 -0.38,-0.61 -0.38,-0.99 0,-0.83 0.67,-1.5 1.5,-1.5 L 16,16 c 2.76,0 5,-2.24 5,-5 C 21,6.58 16.97,3 12,3 Z M 6.5,12 C 5.67,12 5,11.33 5,10.5 5,9.67 5.67,9 6.5,9 7.33,9 8,9.67 8,10.5 8,11.33 7.33,12 6.5,12 Z m 3,-4 C 8.67,8 8,7.33 8,6.5 8,5.67 8.67,5 9.5,5 10.33,5 11,5.67 11,6.5 11,7.33 10.33,8 9.5,8 Z m 5,0 C 13.67,8 13,7.33 13,6.5 13,5.67 13.67,5 14.5,5 15.33,5 16,5.67 16,6.5 16,7.33 15.33,8 14.5,8 Z m 3,4 C 16.67,12 16,11.33 16,10.5 16,9.67 16.67,9 17.5,9 18.33,9 19,9.67 19,10.5 19,11.33 18.33,12 17.5,12 Z"
       inkscape:connector-curvature="0" />
    <path
       id="path5688"
       d="M 0,0 24,0 24,24 0,24 Z"
       inkscape:connector-curvature="0"
       style="fill:none" />
  </g>
  <g
     style="fill:#000000"
     id="icon_copy"
     transform="translate(14.808194,5.30557)">
    <path
       id="path5702"
       d="M 0,0 24,0 24,24 0,24 Z"
       inkscape:connector-curvature="0"
       style="fill:none" />
    <path
       id="path5704"
       d="M 16,1 4,1 C 2.9,1 2,1.9 2,3 L 2,17 4,17 4,3 16,3 16,1 Z M 19,5 8,5 C 6.9,5 6,5.9 6,7 l 0,14 c 0,1.1 0.9,2 2,2 l 11,0 c 1.1,0 2,-0.9 2,-2 L 21,7 C 21,5.9 20.1,5 19,5 Z M 19,21 8,21 8,7 19,7 19,21 Z"
       inkscape:connector-curvature="0" />
  </g>
  <g
     style="fill:#000000"
     id="icon_delete"
     transform="translate(14.808194,32.30557)">
    <path
       id="path5718"
       d="M 0,0 24,0 24,24 0,24 Z"
       inkscape:connector-curvature="0"
       style="fill:none" />
    <path
       id="path5720"
       d="M 14.59,8 12,10.59 9.41,8 8,9.41 10.59,12 8,14.59 9.41,16 12,13.41 14.59,16 16,14.59 13.41,12 16,9.41 14.59,8 Z M 12,2 C 6.47,2 2,6.47 2,12 2,17.53 6.47,22 12,22 17.53,22 22,17.53 22,12 22,6.47 17.53,2 12,2 Z m 0,18 C 7.59,20 4,16.41 4,12 4,7.59 7.59,4 12,4 c 4.41,0 8,3.59 8,8 0,4.41 -3.59,8 -8,8 z"
       inkscape:connector-curvature="0" />
  </g>
  <g
     style="fill:#000000"
     id="icon_flip"
     transform="translate(41.808194,32.30557)">
    <path
       id="path5734"
       d="M 0,0 24,0 24,24 0,24 Z"
       inkscape:connector-curvature="0"
       style="fill:none" />
    <path
       id="path5736"
       d="m 15,21 2,0 0,-2 -2,0 0,2 z m 4,-12 2,0 0,-2 -2,0 0,2 z M 3,5 3,19 c 0,1.1 0.9,2 2,2 L 9,21 9,19 5,19 5,5 9,5 9,3 5,3 C 3.9,3 3,3.9 3,5 Z m 16,-2 0,2 2,0 C 21,3.9 20.1,3 19,3 Z m -8,20 2,0 0,-22 -2,0 0,22 z m 8,-6 2,0 0,-2 -2,0 0,2 z m -4,-12 2,0 0,-2 -2,0 0,2 z m 4,8 2,0 0,-2 -2,0 0,2 z m 0,8 c 1.1,0 2,-0.9 2,-2 l -2,0 0,2 z"
       inkscape:connector-curvature="0" />
  </g>
  <g
     style="fill:#000000"
     id="icon_insertbefore"
     transform="translate(14.808194,59.30557)">
    <path
       id="path5750"
       d="M 0,0 24,0 24,24 0,24 Z"
       inkscape:connector-curvature="0"
       style="fill:none" />
    <path
       id="path5752"
       d="M 9,7 7,7 7,9 9,9 9,7 Z m 0,4 -2,0 0,2 2,0 0,-2 z M 9,3 C 7.89,3 7,3.9 7,5 L 9,5 9,3 Z m 4,12 -2,0 0,2 2,0 0,-2 z m 6,-12 0,2 2,0 C 21,3.9 20.1,3 19,3 Z m -6,0 -2,0 0,2 2,0 0,-2 z M 9,17 9,15 7,15 c 0,1.1 0.89,2 2,2 z m 10,-4 2,0 0,-2 -2,0 0,2 z m 0,-4 2,0 0,-2 -2,0 0,2 z m 0,8 c 1.1,0 2,-0.9 2,-2 l -2,0 0,2 z M 5,7 3,7 3,19 c 0,1.1 0.89,2 2,2 L 17,21 17,19 5,19 5,7 Z m 10,-2 2,0 0,-2 -2,0 0,2 z m 0,12 2,0 0,-2 -2,0 0,2 z"
       inkscape:connector-curvature="0" />
  </g>
</svg>
